Coordinates
version=1
nRows=10
nColumns=40
inDegrees=yes

Units are S.I. units (second, meters, Newtons, ...)
Angles are in degrees.

endheader
time	pelvis_tilt	pelvis_list	pelvis_rotation	pelvis_tx	pelvis_ty	pelvis_tz	hip_flexion_r	hip_adduction_r	hip_rotation_r	knee_angle_r	knee_angle_r_beta	ankle_angle_r	subtalar_angle_r	mtp_angle_r	hip_flexion_l	hip_adduction_l	hip_rotation_l	knee_angle_l	knee_angle_l_beta	ankle_angle_l	subtalar_angle_l	mtp_angle_l	lumbar_extension	lumbar_bending	lumbar_rotation	arm_flex_r	arm_add_r	arm_rot_r	elbow_flex_r	pro_sup_r	wrist_flex_r	wrist_dev_r	arm_flex_l	arm_add_l	arm_rot_l	elbow_flex_l	pro_sup_l	wrist_flex_l	wrist_dev_l
     14.19750000	     -6.92307113	     -4.93287157	      8.25532013	      0.89444670	      0.91832759	      0.50798748	      0.40922322	      2.23816090	    -20.69312108	     15.68630491	     15.68630491	     17.01902711	     -3.10139844	     -2.53695122	     29.23036015	     -4.09933218	      4.52090840	     25.02153614	     25.02153614	      5.51898988	    -11.84297801	      3.13688937	     -8.39299328	      2.58252762	      4.06646092	     59.41264231	    -18.50274280	     -6.09573390	     77.24044337	     44.39139901	      0.00000000	      0.00000000	    -12.20000762	    -10.14258378	     18.29706901	     34.42585914	     43.59974445	      0.00000000	      0.00000000
     14.21742857	     -6.94418729	     -5.00924899	      7.84357760	      0.89611332	      0.91915552	      0.50320254	      0.08422911	      1.88878432	    -20.45129561	     16.01097410	     16.01097410	     16.66138599	     -2.82524893	     -2.59717894	     28.76436222	     -4.03601431	      4.32578358	     25.31797659	     25.31797659	      6.14357557	    -12.19758293	      3.07881928	     -8.32068628	      2.75120674	      4.21101135	     58.59922305	    -18.27028195	     -6.03056788	     76.67624144	     44.40802299	      0.00000000	      0.00000000	    -11.69196373	    -10.42152849	     18.19858959	     34.61860453	     43.62513578	      0.00000000	      0.00000000
     14.23735714	     -7.01055416	     -4.93064337	      7.42850193	      0.89757687	      0.91991001	      0.49823365	     -0.07043701	      1.19404832	    -20.70784446	     16.60641152	     16.60641152	     15.94840706	     -2.01578770	     -4.32420517	     28.34938128	     -3.79607610	      4.01816598	     25.70982796	     25.70982796	      7.57809128	    -12.13669551	      5.01314765	     -8.10555417	      2.70873683	      4.03356955	     58.36060221	    -17.46797457	     -6.70990825	     73.42327564	     44.59361410	      0.00000000	      0.00000000	    -11.47727747	    -10.74066741	     18.01476067	     35.32875170	     43.76678465	      0.00000000	      0.00000000
     14.25728571	     -6.95436118	     -5.05842016	      6.97842899	      0.89909467	      0.92085695	      0.49348087	     -0.30263211	      0.84985416	    -20.36678969	     17.19537884	     17.19537884	     15.49080309	     -1.89097222	     -4.40232378	     27.73041624	     -3.81825568	      3.73142822	     25.85061538	     25.85061538	      8.13619113	    -12.36583032	      4.88745776	     -8.11935674	      2.94729754	      4.01422891	     57.18598376	    -17.27221718	     -6.62460174	     72.87313739	     44.60701961	      0.00000000	      0.00000000	    -10.97178484	    -11.07603156	     17.88353267	     35.46998686	     43.79559666	      0.00000000	      0.00000000
     14.27721429	     -6.85416789	     -5.15684423	      6.53436647	      0.90051366	      0.92185245	      0.48877047	     -0.43414768	      0.42039537	    -20.05366462	     18.04382838	     18.04382838	     15.01817428	     -1.81753394	     -4.59453965	     27.01680652	     -3.82255913	      3.39502440	     25.89990569	     25.89990569	      8.68249140	    -12.48619409	      4.77914362	     -8.14623368	      3.17241218	      4.00510157	     55.74057254	    -17.08642927	     -6.57940566	     72.08057702	     44.62861779	      0.00000000	      0.00000000	    -10.35615775	    -11.36624363	     17.74388556	     35.64922873	     43.82670005	      0.00000000	      0.00000000
     14.29714286	     -6.97242909	     -4.94007565	      5.96538070	      0.90157244	      0.92247856	      0.48406702	      0.12562544	     -0.58323250	    -19.68265839	     19.80467054	     19.80467054	     14.49418509	     -2.04968860	     -5.58324513	     26.39716506	     -3.56256439	      2.61031383	     25.76776024	     25.76776024	      9.31545840	    -12.23557886	      4.77675791	     -7.95693446	      2.93558865	      4.33138727	     54.29269801	    -17.38672896	     -6.99217894	     70.18374451	     44.71092306	      0.00000000	      0.00000000	     -9.55566949	    -11.68564242	     17.47152812	     35.84306241	     43.89302326	      0.00000000	      0.00000000
     14.31707143	     -6.87074136	     -4.99323348	      5.47198572	      0.90275043	      0.92329877	      0.47955439	      0.27865089	     -1.11396968	    -19.18749119	     20.99364878	     20.99364878	     12.69407874	     -2.98745304	     -9.24818379	     25.73497179	     -3.56315254	      2.10503603	     25.92858808	     25.92858808	     10.23764271	    -12.00132014	      5.47906758	     -7.80379234	      3.09260183	      3.92074995	     53.33177995	    -16.32341498	     -8.01429604	     66.79032238	     44.90526637	      0.00000000	      0.00000000	     -8.78603292	    -11.77949220	     16.88232329	     35.30167716	     44.10236198	      0.00000000	      0.00000000
     14.33700000	     -6.75405940	     -5.00090731	      4.95548859	      0.90378721	      0.92410362	      0.47516159	      0.77922869	     -1.81522370	    -18.71046465	     22.96827956	     22.96827956	     11.98004484	     -3.53812065	     -9.86381058	     24.94019483	     -3.50958143	      1.60365366	     25.84310550	     25.84310550	     10.77670214	    -11.93853107	      5.33567811	     -7.82031764	      3.19225881	      3.84321841	     51.30481226	    -16.23085980	     -7.93112521	     65.75983422	     44.93505234	      0.00000000	      0.00000000	     -7.94478990	    -12.04557741	     16.63596631	     35.49437377	     44.16269927	      0.00000000	      0.00000000
     14.35692857	     -6.60887060	     -5.00183685	      4.41257840	      0.90468159	      0.92479412	      0.47091624	      1.50282073	     -2.55076163	    -18.12834392	     25.34689262	     25.34689262	     11.11239013	     -4.49962978	    -10.61396969	     24.15699484	     -3.46702135	      1.03071452	     25.81578926	     25.81578926	     11.30021470	    -11.87590126	      5.19445517	     -7.81421048	      3.28096907	      3.76775007	     49.13534964	    -16.13958030	     -7.91544440	     64.42578913	     44.97653942	      0.00000000	      0.00000000	     -6.95027099	    -12.30529634	     16.40373760	     35.53855047	     44.22207058	      0.00000000	      0.00000000
     14.37685714	     -6.43043381	     -5.01584561	      3.87271405	      0.90546106	      0.92534873	      0.46689670	      2.43383612	     -3.25956712	    -17.41637082	     28.09076716	     28.09076716	     10.10980562	     -5.83681345	    -11.39521633	     23.37897896	     -3.43842023	      0.50881552	     25.84411445	     25.84411445	     11.87980446	    -11.79983912	      5.03076150	     -7.80191711	      3.38131546	      3.65810080	     46.81619219	    -15.97655887	     -7.89128193	     62.90952008	     45.02284139	      0.00000000	      0.00000000	     -5.81624765	    -12.53010960	     16.19405152	     35.45664803	     44.28004018	      0.00000000	      0.00000000
